<?xml version="1.0"?>
<svg width="12.933333cm" height="4.7cm" xmlns="http://www.w3.org/2000/svg" xmlns:svg="http://www.w3.org/2000/svg">
 <!-- Created with SVG-edit - http://svg-edit.googlecode.com/ -->
 <defs>
  <linearGradient id="svg_1" x1="0" y1="0" x2="1" y2="0">
   <stop stop-color="#0000bf" offset="0"/>
   <stop stop-color="#ffff40" offset="1"/>
  </linearGradient>
  <radialGradient id="svg_7" spreadMethod="pad" cx="0.5" cy="0.5" r="0.5">
   <stop stop-color="#007f00" offset="0"/>
   <stop stop-color="#ff80ff" offset="1"/>
  </radialGradient>
 </defs>
 <g>
  <title>Layer 1</title>
  <g id="svg_3">
   <path fill="url(#svg_7)" stroke="url(#svg_1)" stroke-width="0" stroke-dasharray="null" stroke-linejoin="null" stroke-linecap="null" d="m82.83477,24.824873c-30.652161,0 -55.5,24.847837 -55.5,55.500002c0,30.652161 24.847839,55.5 55.5,55.5c30.652161,0 55.499992,-24.847839 55.499992,-55.5c0,-30.652164 -24.847832,-55.500002 -55.499992,-55.500002zm12.059242,83.257639c-0.301674,0.244392 -0.698814,0.496422 -0.400955,0.790459c0.297852,0.297852 -0.343681,0.500237 -0.343681,0.649162s0.397141,0.939384 0.19857,1.283058c-0.19857,0.351318 -0.347496,0.851555 -0.496422,1.149414c-0.148926,0.294029 -0.500244,0.591888 -0.397141,1.038666c0.095467,0.442963 -0.397133,0.294037 -0.397133,0.740814c0,0.442963 0.442963,0.248215 0.343674,0.794273c-0.095467,0.549881 -0.343674,0.698814 -0.343674,1.08831c0,0.397141 0.244392,0.943207 0.244392,1.092133s-0.244392,0.649162 -0.591888,1.038666c-0.351318,0.397141 -0.591888,0.64917 -0.549889,0.88974c0.053467,0.248215 0.397141,0.549881 0.347496,0.702629c-0.049637,0.141289 -0.492599,0.641533 -0.442955,0.989029c0.053459,0.343674 0.492599,0.202385 0.591888,0.442955c0.099281,0.248215 -0.591888,0.4506 -0.297859,0.698814c0.297859,0.244392 0.698814,0.194748 0.595711,0.794273c-0.072556,0.427689 0.244392,0.622437 0.481148,0.756088c-3.402405,0.843918 -6.942276,1.344162 -10.60434,1.344162c-24.286503,0 -44.040287,-19.753784 -44.040287,-44.040283c0,-7.916023 2.12698,-15.33181 5.796684,-21.754749c0.301674,-0.160385 0.523155,-0.263485 0.652985,-0.236755c0.248211,0.049641 0.301674,0.397137 0.698814,0.496422c0.397137,0.099285 0.744633,-0.297852 0.992844,-0.446781c0.244392,-0.148926 0.442959,-0.744633 0.194748,-0.694988c-0.248211,0.049641 -0.893559,0 -0.893559,0s0.698811,-0.397141 0.698811,-0.645351s0.095463,-0.645348 0.492603,-0.794273c0.393318,-0.152744 0.393318,-0.053463 0.145107,0.542244c-0.248211,0.595707 0.50024,0.347496 0.794273,0.099285s0.496422,-0.049641 1.03867,-0.397137c0.546062,-0.347496 0.546062,-0.546066 0.843918,-0.546066c0.297852,0 0.843918,0.546066 1.141769,0.347496c0.294037,-0.198566 1.141773,0.248211 1.638195,0.248211c0.492603,0 2.081154,0.645351 2.382824,0.645351c0.297855,0 1.191414,0.343678 1.241058,0.989025c0.049641,0.645351 0.343674,0.595707 0.641529,0.595707s0.992844,0.248211 0.992844,0.496422c0,0.248211 -0.19857,1.241055 0.297852,1.489269c0.492607,0.244392 0.943203,0.645348 1.141773,0.546062c0.198566,-0.099285 0,-0.88974 -0.244392,-0.992844c-0.248211,-0.099285 -0.103104,-0.446781 -0.19857,-0.645348c-0.099285,-0.194752 0.297855,-0.194752 0.446781,0.148926c0.148926,0.347496 0.546062,0.992844 0.794273,0.992844c0.244392,0 0.794277,0.595707 0.641533,0.943203c-0.14893,0.347496 0.148926,0.843918 0.595707,0.843918c0.442959,0 0.992844,0.694988 1.19141,0.744633c0.19857,0.049641 0.446781,0.297852 0.446781,0.446781c0,0.152744 0.248211,0.99284 0.248211,1.340336c0,0.343681 -0.152744,1.733658 -0.202389,2.279724s0.397141,1.489265 0.893562,1.985687c0.492599,0.496422 0.939384,1.439629 1.237236,1.638191c0.301674,0.19857 0.496422,0.744637 0.943199,0.694992c0.446785,-0.049637 0.744637,0.297859 1.141777,0.992851c0.397133,0.694984 0.794273,1.832939 1.092125,1.932228c0.297852,0.099281 0.794273,0.446777 0.542244,0.694984c-0.244392,0.244392 -0.641525,0.794281 -0.194748,0.794281c0.446777,0 0.595711,-0.248215 0.943199,0.202385c0.343681,0.442963 0.794281,0.69117 0.740822,0.992844c-0.049644,0.294037 0.397133,0.393318 0.595703,0.442963c0.19857,0.049644 0.645348,0.943199 1.092133,0.546066c0.446777,-0.397141 -0.591888,-0.989029 -0.893562,-1.244881c-0.297852,-0.244392 0,-0.790451 -0.694992,-1.336517c-0.694992,-0.546066 -0.595703,-0.943199 -1.092133,-1.34034c-0.496422,-0.397141 -0.88974,-0.744637 -0.397133,-1.092133c0.496422,-0.347496 0.546066,0.347496 0.744629,0.794281c0.19857,0.442955 1.237236,1.34034 1.684021,1.733658c0.446777,0.397133 1.244873,1.787117 1.489265,1.787117s0.943199,0.794273 0.943199,0.794273s0.393326,0.641533 0.244392,0.840103c-0.148926,0.19857 0.202393,0.943199 0.549889,1.141769c0.343674,0.19857 1.737473,0.840096 1.936043,0.943199c0.19857,0.103104 0.591888,0.843918 1.141769,0.843918c0.542252,0 0.943207,0.053467 1.092133,0.202393c0.148926,0.145103 0.591888,0.740814 0.893555,0.397133c0.297859,-0.351311 0.343681,-0.500237 0.794281,-0.500237c0.446777,0 0.641525,0.347496 0.88974,0.595703c0.248207,0.248215 0.943199,0.897385 1.290695,0.84774c0.347496,-0.049644 0.794273,0.397133 1.042488,0.244392s0.645348,0.095467 0.840096,0.19857c0.206207,0.099281 0.893562,0.4506 0.84774,1.038666c-0.049644,0.599525 0.393318,0.744629 0.694992,0.893562c0.297852,0.148926 0.694992,0.496422 0.947021,0.744629c0.244392,0.240578 0.786636,0.294037 0.939384,0.442963c0.148926,0.148926 0.248207,0.446777 0.694992,0.19857c0.442955,-0.244392 0.351311,-0.691177 0.351311,-0.691177s0.492607,-0.099281 0.740814,0.099289c0.244392,0.190933 0.397141,0.840096 0.549881,0.939384c0.145111,0.099281 0.439148,0.843918 0.240578,1.382339c-0.194748,0.553703 -0.145111,1.092133 -0.347496,1.092133c-0.19857,0 -0.442963,0.64917 -0.744637,0.798096c-0.290215,0.148926 -1.08831,0.843918 -1.038666,1.092125c0.049644,0.240578 0.500244,0.985207 0.397141,1.336525c-0.095467,0.347496 -0.740814,0.744629 -0.588074,1.290695c0.145111,0.549881 1.191414,0.698814 1.233421,1.191414c0.053459,0.500244 0.798096,1.592369 0.897377,2.084976c0.095467,0.496422 0.939384,1.038666 0.939384,1.729836c0,0.702629 1.191414,1.145592 1.439621,1.191414c0.240578,0.049644 0.694992,0.500244 1.038673,0.64917s0.645348,0.442963 0.88974,0.843918s0.202385,0.996658 0.202385,1.141769c0,0.148926 -0.148926,1.680199 -0.297852,2.573761c-0.15274,0.897377 0.190933,1.592369 -0.103104,1.844398zm-32.045959,-46.132896c0.148926,0.049641 0.446777,0.347496 0.595703,0.347496c0.152748,0 0.893562,0.595707 1.092133,0.794273c0.202385,0.19857 0.202385,0.744633 -0.049644,0.794273s-0.397141,-0.546062 -0.446777,-0.794273c-0.049644,-0.248211 -0.546066,-0.248211 -0.794277,-0.397137c-0.248211,-0.14893 -0.801914,-0.882107 -0.397137,-0.744633zm63.939171,19.940895c-0.549881,0.694992 -0.496422,1.038666 -0.744629,1.092133c-0.244392,0.049637 0.248207,0.248207 0.343674,0.740814c0.084015,0.427681 -0.248207,0.85537 0.240578,1.248688c-1.855858,17.638268 -14.16713,32.206345 -30.610161,37.372955c-0.026726,-0.042007 -0.072548,-0.095467 -0.080185,-0.129837c-0.103104,-0.297852 -0.103104,-0.88974 0.244392,-1.08831c0.347496,-0.202385 1.191406,-0.88974 1.386162,-1.038666c0.19857,-0.15274 0.496422,-0.843918 0.347496,-0.943199c-0.145111,-0.099289 -0.885925,0 -0.992844,-0.148926c-0.099289,-0.148933 -0.099289,-0.351318 0.397133,-0.694992c0.496422,-0.347496 0.744637,-0.84774 0.943207,-0.992844c0.19857,-0.148933 0.591888,-0.446785 0.744629,-0.798096c0.145111,-0.343681 -0.156563,-0.148926 -0.4506,-0.148926s-0.446777,-0.542252 -0.446777,-0.790459s0.744637,0.099281 1.294518,0.19857c0.546066,0.091644 0.294037,-0.248215 0.244392,-0.542252c-0.049644,-0.297852 0.099281,-0.798088 0.400955,-0.649162c0.290215,0.148926 1.829124,-0.049644 2.027695,-0.099281c0.19857,-0.049644 0.740814,-0.939384 0.939384,-1.191414c0.202385,-0.248215 0.244392,-0.492607 0,-0.641533c-0.248215,-0.152748 -0.546066,-0.702629 -0.641533,-0.843918c-0.099281,-0.156563 -0.148926,-1.046303 -0.049644,-1.298332c0.095467,-0.240578 0,1.439621 0.691177,1.642006c0.698807,0.19857 1.092125,0.297859 1.737473,-0.297852c0.645355,-0.591888 1.137955,-0.992844 1.191414,-1.386162c0.049644,-0.397141 0.19857,-0.798096 0.446785,-0.939384c0.248207,-0.148926 0.397133,0.393318 0.694992,-0.248207c0.297852,-0.64917 0.595703,-0.599525 0.893555,-1.141777c0.294037,-0.549881 -0.496422,-1.241051 0.091652,-1.642006c0.599525,-0.393318 1.642006,-0.88974 1.642006,-0.88974s0.297859,-0.148933 0.893562,-0.297859c0.591888,-0.145103 1.237236,-0.053459 1.435806,-0.343674c0.19857,-0.301674 0.397141,-0.943199 0.694992,-1.290695c0.301674,-0.351318 0.645348,-0.893562 0.496422,-1.141777c-0.148926,-0.248207 0.397141,-1.344154 0.347496,-1.638191c-0.049644,-0.297852 -0.496422,-0.996666 0.248207,-1.588547s1.535095,-1.493088 1.588554,-1.733665c0.045822,-0.248207 0.645348,-1.290695 0.588066,-1.790932c-0.045822,-0.492607 -0.588066,-1.08831 -0.935562,-1.241058c-0.351311,-0.141289 -1.092133,-0.190933 -1.389984,-0.588066s-1.141769,-0.794281 -1.439621,-0.694992c-0.294037,0.099281 -0.794273,0.194748 -1.191414,-0.057281c-0.397141,-0.24057 -1.038666,-0.546066 -1.28688,-0.740814c-0.252029,-0.194748 -0.893555,-0.343681 -1.191414,-0.343681s-0.248207,-0.202385 -0.694992,0.393326c-0.446777,0.599525 0,0.798088 -0.794273,0.694984c-0.798096,-0.091644 0.095467,-0.145103 0.549889,-0.740814c0.43914,-0.591888 -0.053467,-0.943199 -0.549889,-0.790451c-0.496422,0.148926 -0.148926,0.446777 -0.943199,0.595703c-0.790459,0.145111 -0.790459,-0.351311 -0.294037,-0.446777c0.496422,-0.099289 1.386162,-0.546066 1.386162,-0.740814c0,-0.202393 -0.099281,-0.748459 -0.496422,-0.748459s-0.297852,-0.492599 -0.88974,-1.134132c-0.595703,-0.649162 -1.34034,-1.046303 -1.939865,-0.950836c-0.588066,0.099281 -1.038666,0.248207 -1.336517,-0.290215c-0.297859,-0.549889 -0.645355,-0.64917 -0.84774,-0.943207c-0.194748,-0.297852 -0.694992,0 -0.843918,-0.148926s-0.148926,-0.148926 -0.148926,-0.148926s-0.645348,0.148926 -0.294037,-0.297852c0.343681,-0.446785 0.492607,-1.290703 0.343681,-1.241058c-0.145111,0.049644 -0.397141,0.748451 -0.641533,0.698814c-0.244392,-0.049644 -0.053459,-0.152748 -0.549881,-0.446785c-0.496422,-0.297852 -1.28688,-0.049637 -1.28688,0.19857c0,0.248215 -0.248215,0.446777 -0.248215,0.446777s-0.148926,-0.145103 -0.297852,-0.446777c-0.148926,-0.297852 -0.843918,-0.347496 -1.191414,-0.049644c-0.343674,0.297859 -0.542244,-0.748451 -0.790451,-0.748451s-0.740822,0.248215 -0.992844,0.702629c-0.244392,0.442963 -0.145111,1.08831 -0.351318,1.038673c-0.190933,-0.049644 -0.24057,-0.889748 -0.190933,-1.191414c0.04583,-0.301674 0.591888,-0.794281 0.190933,-0.893562c-0.393318,-0.099281 -0.989029,0.496422 -1.233414,0.546066c-0.248215,0.049637 -0.744637,0.397133 -1.042488,0.798088c-0.294037,0.393326 -0.442963,0.641533 -0.744637,0.790459c-0.294037,0.148926 -0.736992,0 -0.637711,-0.148926c0.095467,-0.148926 -0.84774,-0.69117 -0.996666,-0.496422c-0.15274,0.19857 -0.591888,0.347496 -1.038666,0.549881c-0.446777,0.19857 -0.847733,-0.248207 -0.943199,-0.446777s-0.301674,-0.244392 -0.347496,-0.893562c-0.049644,-0.641525 0.103104,-1.34034 0.248207,-1.733658c0.145111,-0.397141 -0.744629,-1.191414 -1.092125,-1.145592c-0.347496,0.057281 -0.694992,0.400955 -1.038673,0.347496c-0.351311,-0.045822 -0.19857,-0.145103 -0.744629,-0.145103c-0.546066,0 -0.099289,-0.095467 0,-0.546066c0.095467,-0.442963 -0.19857,-1.042488 0.351311,-1.439621c0.542244,-0.397141 0.347496,-1.34034 0,-1.386169c-0.351311,-0.053459 -0.996658,0.148933 -1.439621,0.099289c-0.442963,-0.053459 -0.794273,0.347496 -0.645348,0.790459c0.148926,0.446777 -0.248215,0.744629 -0.397141,0.698807c-0.148926,-0.049644 -0.343674,-0.297852 -0.893562,0.099281c-0.542244,0.393318 -0.740814,0.244392 -1.28688,-0.198563c-0.546059,-0.4506 -1.141769,-0.893562 -1.241051,-1.588554c-0.099281,-0.694992 -0.152748,-1.389984 0.049644,-1.787117c0.194748,-0.397141 0.194748,-1.08831 -0.099289,-1.191414c-0.297852,-0.095467 0.343681,-0.591888 0.691177,-0.691177c0.351311,-0.099281 0.893555,-0.546059 0.992844,-0.744629c0.099281,-0.19857 0.595703,-0.152748 1.137947,-0.152748c0.546066,0 0.645348,0 1.191414,0.297852c0.546066,0.297859 0.645348,-0.148926 0.645348,-0.297852c0,-0.148926 0.19857,-0.446777 0.794273,-0.397133c0.595711,0.049637 1.435806,-0.19857 1.588554,-0.049644s0.442963,0.744629 0.740814,0.546066c0.301674,-0.194756 0.397141,-0.546066 0.500244,0.053459c0.095467,0.591888 0.343674,1.489265 0.794273,1.638191c0.442963,0.148926 0.19857,0.740814 0.641533,0.790459c0.43914,0.049644 0.649162,-0.939384 0.500237,-1.28688c-0.15274,-0.343674 -0.4506,-1.386162 -0.698807,-1.634377c-0.244392,-0.248207 -0.244392,-0.893555 0.244392,-1.092125c0.496422,-0.19857 1.687836,-1.191414 2.031509,-1.485451c0.351311,-0.301674 1.290695,-0.549881 0.996666,-0.947021c-0.297859,-0.397141 -0.397141,-0.641525 -0.397141,-0.943199s0.297852,-0.19857 0.446777,0s0.740814,-0.297852 0.591888,-0.546066c-0.145103,-0.244392 -0.099281,-0.591888 0.248215,-0.546066c0.347496,0.049644 0.442963,-0.248207 0.297852,-0.446777c-0.148926,-0.19857 0.347496,-0.446777 0.694992,-0.347496c0.351311,0.099281 1.241051,-0.049644 1.389984,-0.248207c0.145103,-0.19857 -0.297859,-0.397141 -0.297859,-0.794281c0,-0.397133 0.591888,-0.744629 0.943207,-0.794273c0.347496,-0.049644 0.790451,0 0.843918,-0.148926c0.045822,-0.148926 0.546059,-0.546066 0.591888,-0.19857c0.053459,0.347496 0,0.943199 0.397133,0.943199c0.397141,0 0.885925,-0.446777 1.038673,-0.492599c0.145103,-0.049644 1.092125,-0.248215 1.290695,-0.297852c0.19857,-0.049644 1.386162,-0.148926 1.241058,-0.496422c-0.148933,-0.343681 -0.297859,-0.691177 -0.4506,-0.840103c-0.148933,-0.148926 -0.294037,0.049644 -0.496422,0.297852c-0.194756,0.248215 -0.546066,0.248215 -0.641533,0.049644c-0.099281,-0.194748 0.045822,-0.790455 -0.297852,-0.595703c-0.351318,0.198563 -0.397141,0.397133 -0.599525,0.297852c-0.19857,-0.099289 -0.393318,-0.446785 -0.393318,-0.446785s0.492599,-0.244389 0.145103,-0.694988c-0.343674,-0.446781 -0.843918,-0.347496 -1.336517,-0.095467c-0.496422,0.244392 -0.4506,0.194752 -1.042488,0.343678s-0.893562,0.297852 -0.893562,0.297852s0.798096,-0.492603 1.141777,-0.794273c0.347496,-0.297852 0.798088,-0.446781 1.092125,-0.744633c0.297852,-0.297852 1.08831,0.148926 1.08831,0.148926s0.400955,-0.397137 0.400955,-0.148926s-0.103104,0.893559 0.194748,0.893559c0.301674,0 1.141777,-0.397137 0.801918,-0.50024c-0.355133,-0.099285 0.492599,0 0.836281,-0.248211c0.351311,-0.248211 0.740814,-0.248211 0.943199,-0.343678c0.19857,-0.099281 0.351311,-0.546062 0.694992,-0.546062c0.351311,0 0.496422,0.446781 0,0.744633s-0.546066,1.042488 -0.794273,1.241055c-0.244392,0.19857 -0.099289,0.446777 0.297852,0.397137c0.397141,-0.049641 0.740814,0.049641 1.092125,-0.049641s0.546066,0.099281 0.641533,0.248215c0.099281,0.148926 0.397141,-0.148933 0.397141,-0.148933s0.645348,-0.148926 0.843918,0.099289c0.202385,0.244392 0.351311,-0.14893 0.202385,-0.397141c-0.148926,-0.244392 -0.351311,-0.492603 -0.496422,-0.794273c-0.148926,-0.297855 -0.347496,-0.397141 -0.740814,-0.297855c-0.397141,0.099285 -0.496422,-0.099281 -0.744637,-0.244392c-0.248207,-0.152744 -0.450592,0.19857 -0.248207,-0.152744c0.202385,-0.343678 0.297852,-0.446777 0.446777,-0.744633c0.148926,-0.297852 0.798096,-0.843918 0.148926,-0.989025c-0.645348,-0.152744 -0.847733,-0.248211 -0.943199,-0.546062c-0.099281,-0.297855 -0.843918,-0.843918 -1.038666,-0.843918c-0.202393,0 -0.88974,0 -0.943207,-0.248211c-0.049637,-0.248215 -0.546059,-0.794277 -0.794273,-1.042488c-0.244392,-0.248211 -1.191414,-1.34034 -1.34034,-1.439625c-0.148926,-0.099285 -0.347496,-0.049641 -0.794273,0.546062c-0.442963,0.599525 -0.840103,0.698811 -1.191414,0.549885c-0.347496,-0.148926 -0.397141,-0.099285 -0.736992,-0.496422c-0.355133,-0.397137 0.343674,-0.446781 0.194748,-0.694992c-0.152748,-0.244392 -0.943207,-0.347496 -1.439629,-0.397137c-0.496422,-0.049644 -0.843918,-0.595707 -1.588547,-0.645351c-0.740814,-0.049641 -1.634377,0.099285 -1.882584,0.099285c-0.244392,0 -0.244392,0.347496 -0.343681,0.893562c-0.103104,0.546062 0.343681,0.694988 -0.103104,0.794273c-0.442963,0.099285 -0.645348,0.148926 -0.19857,0.347496c0.446785,0.19857 1.042488,0.992844 1.042488,0.992844s0,0.446781 -0.351311,0.694992c-0.343681,0.248211 -0.694992,0.496422 -0.88974,0.202389c-0.202393,-0.301674 -0.744637,-0.248211 -0.591888,0.049641c0.145103,0.297852 0.442955,0.446781 0.442955,0.744633c0,0.294037 0.446785,1.03867 0.148933,1.28688c-0.297859,0.248211 -0.641533,0.053459 -0.889748,0.099281s-0.500237,-0.397137 -0.297852,-0.496422c0.194756,-0.099281 -0.053459,-0.843918 -0.053459,-0.843918s-0.591888,0.843918 -0.546066,0.397141c0.053467,-0.446781 -0.244392,-0.496422 -0.244392,-0.843918c0,-0.347496 -0.301666,-0.496426 -0.740814,-0.397141c-0.4506,0.099285 -0.992844,-0.152744 -1.840576,-0.30167c-0.840103,-0.14893 -1.187599,-0.244392 -1.882591,-0.595707c-0.694984,-0.347496 -0.943199,-0.099285 -1.290695,-0.049644c-0.347496,0.049644 -0.19857,-0.694988 -0.645348,-0.790455c-0.442963,-0.103104 -0.69117,0.095467 -0.790459,-0.549885c-0.099281,-0.641529 0.148926,-0.794273 1.237236,-1.489265c1.092133,-0.694992 0.943207,-0.992844 1.787125,-1.092129c0.840096,-0.099285 1.241051,0.099281 1.241051,-0.14893s0.19857,-1.241055 0.19857,-0.744633s1.000481,0.526974 0.549881,0.87447c-0.442963,0.347496 -0.19857,0.397137 0.152748,0.397137c0.347496,0 0.989021,-0.347496 0.989021,-0.347496s0.794281,-0.347496 0.992844,-0.049641c0.202393,0.297852 0.202393,0.595707 0.549889,0.595707s1.08831,-0.397141 0.442963,-0.744633c-0.641533,-0.347496 -1.038673,-0.297855 -1.435806,-0.694992s-0.297859,-0.248211 -0.744637,-0.148926c-0.442963,0.099281 -0.442963,-0.14893 -0.595703,-0.14893s-0.397141,0.099285 -0.496429,-0.099281c-0.095459,-0.19857 0.053467,-0.248215 0.553703,-0.248215c0.492607,0 1.08831,0.14893 1.08831,0.14893s0.591888,-0.19857 0.740814,-0.248211c0.148933,-0.049644 0.943207,-0.14893 0.794281,-0.591888c-0.152748,-0.446781 -0.645355,-0.446781 -0.794281,-0.595707s0.297859,-0.343678 0.546066,-0.446781c0.248215,-0.099285 0.943199,0 0.943199,0s0.446785,0.049644 0.446785,-0.148926s-0.106926,-0.446781 0.194748,-0.297852s0,0.595707 0.446777,0.496422c0.442963,-0.099285 0.546066,0 0.790459,0.148926c0.248215,0.148926 -0.049637,0.744633 -0.294037,0.843918c-0.248207,0.095467 -0.645348,0.294033 -0.099281,0.343678c0.549881,0.053459 0.939384,0.053459 0.939384,0.053459s0.351311,-0.347496 0.500244,-0.645348c0.145103,-0.297855 0.397133,-0.099285 0.591888,0c0.198563,0.095467 0.943199,0.248211 0.248207,0.446781c-0.698807,0.198566 -0.843918,0.446777 -0.992844,0.694988c-0.145111,0.248211 -0.202385,0.397141 -0.843918,0.248211c-0.64917,-0.148926 -0.992844,-0.099281 -1.141769,0.14893c-0.148926,0.244392 -0.049644,1.042484 0.202385,0.943199c0.240578,-0.099281 0.492607,-0.099281 0.790459,-0.198566c0.297852,-0.099285 1.489265,0.099281 1.783302,0.049641c0.297852,-0.049641 0.798096,0.496422 0.947021,0.397137c0.148926,-0.099281 0.446777,0.19857 0.740814,0.397141c0.297852,0.198566 0.19857,-0.446781 0.740814,-0.049644c0.549881,0.397141 0.248207,0.397141 0.549881,0.397141c0.290215,0 0.939384,0.049641 0.939384,0.049641s0.053459,-0.492603 0.549881,-0.397137c0.496422,0.099281 0.93557,0.645348 0.885925,0.244392c-0.045822,-0.393322 0.049644,-0.691174 -0.343674,-0.989029c-0.397141,-0.297852 -1.038673,-0.496422 -1.141777,-0.645348c-0.099281,-0.148926 -0.198563,-0.347496 -0.049637,-0.446781c0.148926,-0.095463 0.843918,0.049644 1.237236,0.301674c0.397141,0.248211 0.744629,0.496422 1.042488,0.297852c0.294037,-0.198566 0.649162,-0.297852 0.794273,-0.446777c0.145111,-0.152748 0.496422,-0.595707 0.496422,-0.595707s-1.493088,-0.194752 -1.684013,-0.446781c-0.202393,-0.248211 -0.897385,-0.595707 -1.095947,-0.595707s-0.740822,0.347496 -0.939384,-0.14893s-0.19857,-1.092129 -0.400955,-1.141769c-0.190933,-0.049641 -2.279724,-0.347496 -2.573761,-0.496422c-0.297852,-0.148926 -1.489265,-0.496422 -1.936043,-0.744633s-1.092133,-0.595707 -1.485451,-0.595707c-0.397141,0 -2.035332,0.19857 -2.333183,0.148926c-0.297852,-0.049641 -1.191414,0.099285 -1.53891,0.14893c-0.347496,0.049641 0.446777,0.694988 -0.294037,0.843918c-0.744629,0.148926 -0.645348,0.248211 -0.496422,-0.496422c0.145111,-0.744637 -0.500237,-0.943203 -1.141769,-0.645351c-0.645348,0.297855 -1.687836,0.496422 -1.439621,0.843918c0.248207,0.347496 -0.04583,0.599525 0.446777,0.943203c0.496422,0.347496 0.698807,0.446781 1.336517,0.397137c0.64917,-0.049641 1.294518,0.095467 1.294518,0.095467s0,0.599525 -0.244392,0.694992c-0.248207,0.099285 -0.645348,0.099285 -0.748451,0.397137c-0.095467,0.297855 -0.591888,0.446781 -0.591888,0.297855s0.248215,-0.645351 -0.099281,-0.893562c-0.343681,-0.248211 -0.446785,-0.297852 -0.843918,-0.049641c-0.397141,0.248211 -0.442963,0.347496 -0.645348,-0.049641c-0.19857,-0.397141 -0.794281,-0.744637 -0.794281,-0.744637s-0.397133,-0.492603 -0.694984,-0.740814c-0.294037,-0.248211 -0.840103,-0.198566 -0.893562,0.049644c-0.049644,0.244389 0.099281,0.492603 0.297852,0.943199c0.19857,0.446781 0.397141,1.28688 0.049644,1.34034c-0.347496,0.049644 -0.397141,0.099285 -0.744637,0.19857c-0.347496,0.099285 -0.496422,-0.148926 -0.496422,-0.546062s-0.15274,-0.744633 -0.049644,-0.893562c0.099289,-0.148926 -0.397133,0.103104 -0.893555,0c-0.496422,-0.095467 -0.88974,0.19857 -0.397141,0.351315c0.496422,0.148926 0.599525,0.740814 0.148926,0.88974c-0.446777,0.14893 -2.134613,0 -2.680679,0s-1.336517,0.14893 -1.489265,-0.148926c-0.148926,-0.297852 0.4506,-0.492603 0.794273,-0.492603c0.347496,0 1.386162,0.045822 1.783302,-0.496422c0.397141,-0.546066 -0.496422,-0.645351 -0.88974,-0.645351c-0.397141,0 -0.698814,-0.148926 -1.141769,-0.591885c-0.4506,-0.446781 0.297852,-0.744633 0.19857,-0.943203c-0.099289,-0.19857 -0.595711,-0.053463 -1.038673,-0.053463c-0.446777,0 -1.141769,-0.343674 -1.141769,0.053463c0,0.397137 0.546066,1.535088 0.19857,1.286877c-0.347496,-0.244389 -0.297852,-0.595707 -0.546066,-0.893559c-0.248207,-0.297852 -0.641525,-0.248211 -1.141769,-0.19857c-0.492607,0.049644 -1.336525,0.19857 -1.584732,0.14893c-0.244392,-0.049644 -0.049644,-0.049644 -0.595711,-0.297855c-0.542244,-0.248211 -0.794273,-0.198566 -1.191406,-0.446777c-0.393326,-0.255848 -0.04583,-0.351315 -0.740822,-0.400959c-0.69117,-0.049641 -0.641525,0.343678 -1.336517,0.248211c-0.694992,-0.099281 -0.893562,0.049644 -1.588554,0c-0.694988,-0.049641 -1.038666,-0.099281 -1.141769,0.248211c-0.095463,0.347496 -0.297852,0.943203 -0.595707,0.943203c-0.294033,0 -0.645348,0.347496 0.297855,0.397141c0.943199,0.049641 0.400955,0.492603 1.241051,0.446777c0.843918,-0.049641 1.588554,-0.049641 1.787125,-0.446777c0.19857,-0.397141 0.347496,-0.397141 0.446777,-0.248211c0.095467,0.148926 0.840103,1.038666 0.840103,1.038666s0.500237,0.397137 0.698807,0.496422c0.194748,0.099285 -0.19857,0.546066 -0.595703,0.297855c-0.397141,-0.248211 -1.141777,-0.194752 -1.439629,-0.442963c-0.297852,-0.248211 -1.638191,-0.248211 -1.985687,-0.19857c-0.343678,0.049644 -0.943203,-0.148926 -1.141773,-0.148926c-0.194748,0 -0.843918,0.496422 -0.843918,0.496422s-0.248211,-0.400955 -0.393318,-0.599525c-0.148926,-0.198566 -0.397137,0.19857 -0.595707,0.248211c-0.19857,0.049644 -0.794273,-0.397137 -1.38998,-0.198566c-0.595707,0.198566 -0.397141,0.397137 -1.241055,0.347496s-1.03867,-0.19857 -1.336521,-0.14893c-0.301674,0.049644 -0.301674,0.049644 -0.301674,0.049644s0.049641,0.198566 -0.294033,0.397137c-0.347496,0.19857 -0.599525,0.446781 -0.847736,0.148926c-0.244392,-0.297852 -0.393322,-0.297852 -0.542248,-0.347496c-0.152744,-0.049641 -0.4506,-0.297852 -1.092129,-0.152744c-0.645348,0.152744 -1.638191,-0.194748 -1.832943,-0.194748c-0.152744,0 -1.195232,-0.057281 -1.874947,-0.126019c8.053493,-8.752304 19.566673,-14.281681 32.374359,-14.281681c8.126053,0 15.721313,2.249172 22.262627,6.102173c-0.446777,0.27494 -1.21814,0.229118 -1.481628,0.08783c-0.297852,-0.164204 -0.60334,-0.297855 -1.81385,-0.232937c-1.210503,0.068733 -2.539391,0.465874 -2.272087,0.86301c0.27494,0.397137 -0.542244,0.630074 -0.752266,0.431503c-0.21003,-0.198566 -1.179962,0.229118 -1.118858,0.630074c0.061096,0.397141 -0.148933,0.859196 -0.668266,0.759911c-0.511696,-0.103104 -0.874466,0.229118 -0.905014,0.557518c-0.026733,0.332222 -1.179955,0.56134 -1.267784,0.56134c-0.091652,0 -1.57328,-0.030548 -1.031036,0.36277c0.370407,0.263485 0.5728,0.103104 1.031036,0.19857c0.454414,0.099281 0.817184,0.82864 1.057755,0.927925c0.236755,0.099285 0.5728,0 0.721725,-0.198566c0.15274,-0.19857 0.36277,-0.893562 0.36277,-0.893562s0,0.660625 0.370407,0.794277c0.36277,0.133652 1.263969,-0.099285 1.508362,-0.064919c0.244392,0.030548 1.668739,0.232937 2.05442,0.427689c0.397141,0.198566 1.359436,0.332218 1.634377,0.759907c0.271126,0.431503 0.305489,1.920773 0.454414,2.084972c0.152748,0.164204 0.664444,-0.530788 0.782822,-0.694992c0.118378,-0.168018 0.756088,-0.068733 0.969933,0.160385c0.213844,0.232937 0.694992,0.794273 0.668259,1.02721c-0.038185,0.236755 -0.126015,0.595707 -0.305489,0.465874c-0.183296,-0.129833 -0.484962,-0.095467 -0.366585,-0.36277c0.122192,-0.263485 0.183289,-0.828644 -0.057281,-0.828644c-0.244392,0 -0.454422,0 -0.454422,0s-0.458229,-0.133652 -0.759903,0.36277s-0.057281,0.992844 0.152748,0.992844s0.702621,0 0.702621,0.129833c0,0.133656 -0.519333,0.530792 -0.488785,0.763729c0.03437,0.232937 0.420052,1.023392 0.549881,1.19141c0.118385,0.164204 0.752274,0.328403 0.931747,0.366592c0.187119,0.030548 -0.423866,0.064915 -0.267303,0.294033c0.152748,0.232937 0.389503,0.794273 0.721725,0.927929c0.332222,0.133652 1.271606,0.72554 1.386162,0.992844c0.122192,0.263485 0.847733,-0.19857 1.000481,-0.232937c0.152748,-0.030548 0.1222,0.694992 0.546066,0.729359c0.420052,0.030548 0.572792,-0.068737 0.935562,-0.366589s0.27494,-0.694992 0.301674,-0.992844c0.03437,-0.297855 0,-0.526974 0.397141,-0.431507c0.397133,0.099285 0.60334,-0.068733 0.572792,-0.397137c-0.030548,-0.332222 -0.36277,-0.729359 0.267303,-0.828644c0.637711,-0.099285 0.969933,-0.52697 1.363251,-0.52697c0.393318,0 1.485451,0.1642 1.600006,0c0.1222,-0.1642 0.637718,-0.927929 0.969933,-0.958477c0.255852,-0.02673 0.855377,-0.080193 1.470177,-0.160385c6.041077,7.198124 9.779518,16.359024 10.207207,26.367653c-0.4506,0.60717 -0.04583,1.164688 0.080185,1.558006c0.003822,0.114555 0.019096,0.221481 0.019096,0.336037c0,0.519341 -0.061096,1.027214 -0.080193,1.542732c-0.003815,0.007637 -0.003815,0.015274 -0.011452,0.022911l-0.000008,0zm-37.10183,-16.519402c-0.244392,0.049637 -0.645348,-0.19857 -0.645348,-0.546066s-0.347496,0.645348 -0.152748,0.943199c0.202393,0.297859 -0.397133,0.645355 -0.591881,0.645355s-0.347496,-0.442963 -0.297859,-0.889748c0.053467,-0.446777 -0.294029,-0.843918 -0.843918,-0.794273c-0.546059,0.053459 -0.794273,0.496422 -0.989021,0.645348c-0.202393,0.148933 -0.202393,0.989029 -0.152748,1.191414s0.049644,0.897385 -0.442963,0.843918c-0.4506,-0.049637 -0.351311,-0.88974 -0.301666,-1.191414c0.053459,-0.297852 -0.148933,-1.04248 0.053459,-1.435806c0.202385,-0.397133 0.790459,-0.546059 1.191414,-0.595703s1.237236,0.248207 1.386162,0.19857c0.15274,-0.053459 0.847733,-0.053459 1.191414,0c0.347496,0.042 0.840096,0.935562 0.595703,0.985207zm0.88974,0.148926c0.152748,0.099281 1.187599,-0.148926 1.389984,0.099281c0.194748,0.248215 -0.206207,0.297852 -0.698807,0.496422c-0.492607,0.19857 -0.645355,0.148926 -0.843918,0.397141s-0.843918,0.343674 -1.141777,0.641533c-0.297852,0.301666 -0.828636,0.477325 -0.939384,0.248207c-0.15274,-0.297852 0.049644,-0.148926 0.095467,-0.297852c0.049644,-0.148926 0.93557,-0.492607 0.93557,-0.492607s1.05394,-1.191414 1.202866,-1.092125zm-3.96756,-1.73748c-0.145103,0.049644 -0.694984,-0.099281 -1.145584,-0.099281c-0.442963,0 -0.347496,-0.297855 -0.546066,-0.244392c-0.194748,0.049641 -0.641533,0.148926 -0.943199,0.297852c-0.297859,0.148926 -0.794281,0.114559 -0.794281,-0.152744c0,-0.397137 0.19857,-0.297852 0.843918,-0.546062c0.645355,-0.248211 1.344162,-0.943203 1.638199,-0.645351c0.297852,0.297855 0.843918,0.645351 1.191414,0.694992c0.351311,0.053459 -0.099289,0.645348 -0.244392,0.694992l-0.000008,-0.000004zm-5.074959,-15.392906c-0.301674,0.099285 -1.325066,0.530792 -1.225784,0.759911c0.038193,0.08783 0.297859,0.263485 0.72554,0.198566c0.431511,-0.068733 1.053947,-0.133652 1.355614,-0.1642c0.297859,-0.034367 0.36277,-0.530788 0.03437,-0.56134c-0.332222,-0.034367 -0.595703,-0.332218 -0.88974,-0.232937zm-3.669708,0.397141c-0.232933,0.099281 -0.927925,-0.164204 -1.290695,0.068733c-0.232933,0.145107 -0.099281,0.626255 0.267303,0.656807c0.36277,0.034367 0.989029,-0.229118 1.05394,-0.030552c0.068741,0.19857 0.297859,1.092133 0.893562,0.794277c0.595711,-0.297852 0.56134,-0.56134 0.72554,-0.595707c0.1642,-0.034367 -0.030548,-0.759907 -0.297852,-0.927929c-0.263489,-0.1642 -1.122681,-0.064915 -1.351799,0.034367l0,0.000004zm-1.195229,-2.810513c0.064919,0.168018 -0.030548,0.297852 0.431503,0.36277c0.462059,0.068733 0.660622,0.133652 0.927933,0.133652c0.263481,0 0.160378,-0.431507 -0.068741,-0.72554c-0.232933,-0.297855 -0.1642,-0.263489 -0.759903,-0.431507c-0.595711,-0.1642 -1.191414,-0.1642 -1.588554,-0.133652c-0.397133,0.03437 -0.828644,-0.064915 -0.927925,0.397141c-0.049644,0.236752 0.267303,0.427685 0.664444,0.427685s1.256325,-0.194748 1.321243,-0.030548zm0.863014,1.817669c0.1642,0.36277 0.1642,0.194748 0.630074,0.232937c0.458237,0.034367 0.821007,-0.462055 0.85537,-0.626259c0.03437,-0.168018 -0.232933,-0.496422 -0.859192,-0.431503c-0.630074,0.064919 -2.547028,-0.099285 -2.810509,0.129833c-0.252029,0.221481 0,0.88974 -0.099289,0.958477c-0.099281,0.064919 0.03437,0.36277 0.294037,0.297852c0.263489,-0.064915 0.397141,-0.694988 0.599525,-0.694988c0.19857,0.003819 1.225784,-0.229118 1.389984,0.133652zm-6.220558,-1.355614c0.19857,0.1642 0.698814,0.030548 0.660629,-0.133652c-0.030556,-0.164204 0.202385,-0.828644 -0.194756,-0.859196c-0.397133,-0.030548 -0.954659,0.366592 -1.554184,0.565159c-0.385681,0.126015 -0.297852,0.496422 -0.034363,0.496422s0.927925,-0.232937 1.122673,-0.068733zm2.818153,0.595707c-0.332222,0.1642 -0.435326,0.263485 -0.729355,0.198566c-0.297859,-0.064915 -0.297859,-0.595707 -0.828644,-0.496422c-0.52697,0.099285 -0.626259,0.397141 -0.790459,0.530792s-0.530792,0.232937 -0.660622,0.1642c-0.129837,-0.064919 -0.893562,-0.492603 -0.893562,-0.492603s-1.588554,-0.068737 -1.653465,-0.267303c-0.064919,-0.19857 -0.328407,-0.526974 -1.057762,-0.462055s-1.985687,0.496422 -2.184258,0.496422c-0.19857,0 0.236755,0.397137 -0.03437,0.397137c-0.263489,0 -0.591888,-0.030548 -0.69117,0.263489c-0.068733,0.202385 0.297852,0.198566 0.721718,0.198566c0.427689,0 1.126495,0 1.325066,-0.099281c0.19857,-0.099285 1.191414,-0.332222 1.157043,-0.03437c-0.034363,0.301674 0.397141,0.759911 0.626259,0.694992c0.232941,-0.064919 0.698807,-0.496422 0.927925,-0.328403c0.232941,0.164204 0.267303,0.557522 0.496422,0.660625c0.232941,0.095467 0.863014,0.095467 1.160866,0c0.294037,-0.103104 1.122681,-0.103104 1.485451,-0.03437c0.36277,0.068737 1.424347,0.263489 1.523636,0.068737c0.099281,-0.202389 0.397133,-0.232937 0.427681,-0.431507s0.194756,-0.824825 0.194756,-0.824825s-0.194756,-0.366589 -0.523155,-0.202385zm16.744705,34.203487c-0.454422,0.080193 -0.347496,0.962296 0.198563,0.80191c0.546066,-0.160385 0.252037,-0.885925 -0.198563,-0.80191zm4.315048,-1.183777c-0.397133,-0.099281 -0.843918,0 -1.141769,0.049644c-0.297852,0.049637 -1.141769,0.794273 -1.141769,0.794273s0.546066,0.099281 0.88974,0.099281c0.351318,0 0.549881,0.194748 0.843918,0.343681c0.297852,0.15274 0.843918,-0.19857 1.038666,-0.19857c0.202393,0 0.4506,0.595703 0.500244,-0.049644c0.053459,-0.645348 -0.591888,-0.939384 -0.989029,-1.038666zm-13.819626,-32.160519c-0.1642,-0.397137 -0.989029,-0.530792 -1.160866,-0.133652c-0.145103,0.347496 1.325066,0.530788 1.160866,0.133652zm9.458748,29.728046c0.546066,-0.099281 0.244392,-0.549881 -0.202385,-0.496422c-0.4506,0.049644 -0.347496,0.595711 0.202385,0.496422zm6.59478,3.066368c-0.454414,0.084007 -0.351311,0.96611 0.194748,0.805725c0.549889,-0.160378 0.252029,-0.885918 -0.194748,-0.805725zm-6.006706,-1.477814c-0.343681,0.049644 -1.08831,-0.343674 -1.485451,-0.694992c-0.397141,-0.347496 -1.141769,-0.347496 -1.439621,-0.347496c-0.294037,0 -1.489265,0.347496 -1.489265,0.347496c-0.049644,0.496422 0.446777,0.347496 1.04248,0.347496s1.638199,-0.099281 1.829132,0.148926c0.202385,0.244392 1.092125,0.641533 1.344154,0.843918c0.244392,0.19857 1.038666,0.248215 1.08831,0.049644s-0.542244,-0.744637 -0.88974,-0.694992zm-5.915062,-31.679375c-0.496422,-0.034367 -1.126495,-0.034367 -1.523636,0c-0.397133,0.030552 -0.694992,-0.263485 -0.992844,-0.431503c-0.294037,-0.1642 -0.958473,-0.694992 -1.351791,-0.759907c-0.397141,-0.064919 -0.328407,-0.064919 -1.157051,-0.263489c-0.420052,-0.1031 -1.122673,-0.232937 -1.122673,-0.3284c0,-0.099285 -0.19857,0.462051 0.1642,0.630074c0.36277,0.1642 0.958473,0.462055 1.386162,0.626255c0.435326,0.1642 1.256332,0.19857 1.523636,0.530788c0.263481,0.328403 1.157043,0.595711 1.157043,0.595711l1.057762,0.099281c0,0 0.729355,-0.1642 1.489265,-0.099281c0.759911,0.064915 1.882584,0.1642 2.516479,0.133652c0.622437,-0.030552 0.721718,-0.232937 0.794273,-0.36277c0.061096,-0.133652 -1.160866,-0.397141 -1.462532,-0.36277c-0.290222,0.022911 -1.985695,0.022911 -2.478294,-0.007637l0,-0.000004zm1.848221,7.606716c-0.129837,0.148926 0.599525,0.36277 0.729355,0.1642c0.129837,-0.194748 -0.389496,-0.52697 -0.729355,-0.1642zm2.222443,0.691174c0.3284,-0.133652 0.1642,-0.530792 -0.301674,-0.397141c-0.52697,0.152748 -0.03437,0.530792 0.301674,0.397141z" id="svg_2"/>
   <text fill="#007f00" stroke="url(#svg_1)" stroke-width="0" stroke-dasharray="null" stroke-linejoin="null" stroke-linecap="null" x="84.529539" y="161.333339" id="svg_6" font-size="24" font-family="Fantasy" text-anchor="middle" xml:space="preserve">AriRaz</text>
  </g>
 </g>
</svg>
